<svg xmlns="http://www.w3.org/2000/svg" viewBox="0 0 543.52 534.49">
  <defs>
    <style>
      .cls-1 {
        fill: #fff;
      }
    </style>
  </defs>
  <title>CATT FlyWhite</title>
  <g id="Layer_2" data-name="Layer 2">
    <g id="Layer_1_copy" data-name="Layer 1 copy">
      <path class="cls-1" d="M543.52,463.38q-31.64,69.3-80.74,69.3-47,0-86-59.2t-38.11-174.9H286.22V528.76H232.59V298.58h-82q-3,150-106,235.91L4.22,495q45.8-38,68.09-83t22.6-113.43H1.21V246.76h94.6V166q-40.08,11.75-74.12,18.68L0,132.87q102.73-12.66,179.57-60l32.24,41.88a411.07,411.07,0,0,1-61.17,31.64V246.76h82V81.65h53.63V246.76h107q-.9,9.64-.9,25.3,0,23.81,1.5,44.59a229.32,229.32,0,0,1,30.13,10q23.2-22.29,48.81-59.36L518.82,292a479.58,479.58,0,0,1-43.69,52.42q46.7,19.29,68.39,31.34l-24.7,47.6q-49.41-28.32-119-53.63,4.81,48.81,25.91,78.34t36.76,29.52q18.07,0,34.34-49.71ZM538.1,193.73q-32.54,63.57-81.35,63.57-42.78,0-77.58-47.9t-38.41-157H15.37V0H396.19q-1.5,18.69-1.5,37.06,0,14.16.9,28.92,15.38,3.31,19,5.12,24.71-26.8,48.81-64.17l48.21,22.3a633.42,633.42,0,0,1-40.68,55.43q34.35,10.56,63.58,21.69l-18.08,46.7q-45.19-20.18-114.19-38.26,4.81,41.58,22.6,64.78t31.63,23.2q15.38,0,35.25-39.77Z"/>
    </g>
  </g>
</svg>
