<svg class="logoRed" width="700px" height="128px" xmlns="http://www.w3.org/2000/svg" viewBox="0 0 700.99 209.56"  preserveAspectRatio="xMidYMid meet">
  <defs>
    <style>
      .cls-1 {
        fill: #f16768;
        stroke: #f16768;
      }

      .cls-1, .cls-2 {
        stroke-miterlimit: 10;
        stroke-width: 16px;
      }

      .cls-2 {
        fill: #fdecdc;
        stroke: #fdecdc;
      }
    </style>
  </defs>
  <title>CATT Red</title>
  <g id="Layer_2" data-name="Layer 2">
    <g id="Layer_2-2" data-name="Layer 2">
      <g>
        <path class="cls-1 glitch" d="M8,115.38A112.94,112.94,0,0,1,9.56,96.92C18.4,45.7,60,8,113,8c29.38,0,48.62,10.92,64.74,27.3L160.1,54.54c-12-12.22-26-19-46.8-19-36.4,0-66.56,26.78-72.8,64.22A76.37,76.37,0,0,0,39.2,113c0,28.6,17.94,50.7,49.92,50.7,23.14,0,40-9.1,55.64-25.48l16.64,20.28c-21.32,22.1-46.8,33-74.88,33C37.38,191.56,8,159.06,8,115.38Z"/>
        <path class="cls-1 glitch" d="M343.92,188.18H313.23l-8.83-32H220.94l-20.28,32h-33L282,10.34h9.62ZM261.5,91.46,236,132h62.13l-11.43-40.3c-2.86-10.66-5.46-20.28-7.54-30.68C273.72,71.44,268.26,80.8,261.5,91.46Z"/>
        <path class="cls-1 glitch" d="M494.45,39.46H432.83l-26,148.72H376.16L402.42,39.46H352.24l4.93-28.08H499.39Z"/>
        <path class="cls-1 glitch" d="M680.1,39.46H575.05l-26,148.72H518.37L544.63,39.46H494.45l4.94-28.08H686.1Z"/>
      </g>
      <g>
        <path class="cls-2 glitch" d="M13,125.38a112.94,112.94,0,0,1,1.56-18.46C23.4,55.7,65,18,118,18c29.38,0,48.62,10.92,64.74,27.3L165.1,64.54c-12-12.22-26-19-46.8-19-36.4,0-66.56,26.78-72.8,64.22A76.37,76.37,0,0,0,44.2,123c0,28.6,17.94,50.7,49.92,50.7,23.14,0,40-9.1,55.64-25.48l16.64,20.28c-21.32,22.1-46.8,33-74.88,33C42.38,201.56,13,169.06,13,125.38Z"/>
        <path class="cls-2 glitch" d="M348.92,198.18H318.23l-8.83-32H225.94l-20.28,32h-33L287,20.34h9.62ZM266.5,101.46,241,142h62.13l-11.43-40.3c-2.86-10.66-5.46-20.28-7.54-30.68C278.72,81.44,273.26,90.8,266.5,101.46Z"/>
        <path class="cls-2 glitch" d="M499.45,49.46H437.83l-26,148.72H381.16L407.42,49.46H357.24l4.93-28.08H504.39Z"/>
        <path class="cls-2 glitch" d="M685.1,49.46H580.05l-26,148.72H523.37L549.63,49.46H499.45l4.94-28.08H691.1Z"/>
      </g>
    </g>
  </g>
</svg>
